<?xml version="1.0" encoding="UTF-8" standalone="no"?>
<svg
   fill="none"
   viewBox="0 0 262 33"
   version="1.1"
   id="svg13"
   sodipodi:docname="ev-logotype.svg"
   inkscape:version="1.1.1 (c3084ef, 2021-09-22)"
   xmlns:inkscape="http://www.inkscape.org/namespaces/inkscape"
   xmlns:sodipodi="http://sodipodi.sourceforge.net/DTD/sodipodi-0.dtd"
   xmlns="http://www.w3.org/2000/svg"
   xmlns:svg="http://www.w3.org/2000/svg">
  <sodipodi:namedview
     id="namedview15"
     pagecolor="#ffffff"
     bordercolor="#666666"
     borderopacity="1.0"
     inkscape:pageshadow="2"
     inkscape:pageopacity="0.0"
     inkscape:pagecheckerboard="0"
     showgrid="false"
     inkscape:zoom="4.3015267"
     inkscape:cx="131.34871"
     inkscape:cy="49.052352"
     inkscape:window-width="1343"
     inkscape:window-height="916"
     inkscape:window-x="54"
     inkscape:window-y="50"
     inkscape:window-maximized="0"
     inkscape:current-layer="text570" />
  <g
     fill-rule="evenodd"
     clip-path="url(#prefix__clip0)"
     clip-rule="evenodd"
     id="g6">
    <g
       aria-label="ERNOVUORI.COM"
       id="text570"
       style="font-weight:bold;font-size:29.3333px;line-height:1.25;font-family:Everett;-inkscape-font-specification:'Everett Bold';fill:#000000">
      <path
         d="M 10.742598,17.801398 H 22.998249 V 14.918142 H 10.742598 Z M 29.889356,29.515364 H 9.301161 v -8.265741 h 15.468726 v 2.882874 H 12.184035 V 26.63249 H 27.006101 V 6.3355615 H 12.184035 V 8.587424 h 12.192664 v 2.882875 H 9.301161 V 3.4523051 H 29.889356 V 29.515364"
         style="fill:#ff5555;fill-opacity:1;fill-rule:nonzero;stroke:none;stroke-width:0.381736"
         id="path107" />
      <g
         aria-label="ernovuori.com"
         id="text627"
         style="font-size:30.6667px;font-family:'Work Sans';-inkscape-font-specification:'Work Sans Bold'">
        <path
           d="m 46.826282,25.646507 q -3.833337,0 -6.072007,-2.085336 -2.208002,-2.085335 -2.208002,-5.888006 0,-2.51467 1.012001,-4.293338 1.042668,-1.809336 2.821337,-2.729337 1.809335,-0.9506672 4.201338,-0.9506672 2.422669,0 4.109337,0.9506672 1.717336,0.920001 2.60667,2.576003 0.889334,1.625335 0.889334,3.741338 0,0.582667 -0.06133,1.134668 -0.03067,0.521334 -0.06133,0.889334 H 43.606279 q 0.214667,1.594668 1.042667,2.300002 0.828001,0.674668 2.177336,0.674668 1.165335,0 1.840002,-0.460001 0.705334,-0.46 1.042668,-1.288001 l 4.170671,1.380001 q -0.429334,1.318669 -1.502668,2.23867 -1.042668,0.889334 -2.51467,1.349334 -1.441334,0.460001 -3.036003,0.460001 z M 46.580949,13.34916 q -2.484003,0 -2.944004,2.852003 h 5.612006 Q 48.911618,13.34916 46.580949,13.34916 Z"
           id="path18748" />
        <path
           d="M 57.072794,25.33984 V 10.00649 h 4.600005 l 0.214667,3.312003 q 0.552001,-1.686668 1.686669,-2.637336 1.165334,-0.9813342 2.97467,-0.9813342 0.582667,0 0.981334,0.1226668 0.429334,0.092 0.674668,0.2146664 l -0.521334,4.293339 q -0.306667,-0.092 -0.797335,-0.184001 -0.46,-0.092 -1.134668,-0.092 -1.410668,0 -2.453336,0.889335 -1.012001,0.889334 -1.012001,2.668002 v 7.728009 z"
           id="path18750" />
        <path
           d="M 70.249892,25.33984 V 10.00649 h 4.661338 l 0.153334,3.097336 q 0.705334,-1.686668 2.054668,-2.545336 1.349335,-0.8586672 3.189337,-0.8586672 2.361336,0 3.833338,1.3800012 1.472001,1.380002 1.472001,4.048005 V 25.33984 h -5.213339 v -8.83201 q 0,-1.594668 -0.613334,-2.208002 -0.613334,-0.613334 -1.564001,-0.613334 -1.134668,0 -1.962669,0.797334 -0.797334,0.797334 -0.797334,2.729336 v 8.126676 z"
           id="path18752" />
        <path
           d="m 96.535566,9.6998228 q 2.422669,0 4.232004,0.9506672 1.84,0.950668 2.852,2.729337 1.04267,1.778668 1.04267,4.293338 0,2.514669 -1.04267,4.293338 -1.012,1.778669 -2.852,2.729336 -1.809335,0.950668 -4.232004,0.950668 -2.392003,0 -4.232005,-0.950668 -1.809335,-0.950667 -2.852003,-2.729336 -1.012001,-1.778669 -1.012001,-4.293338 0,-2.51467 1.012001,-4.293338 1.042668,-1.778669 2.852003,-2.729337 1.840002,-0.9506672 4.232005,-0.9506672 z m 0,3.7106702 q -1.349335,0 -2.116003,1.012002 -0.736,0.981334 -0.736,3.25067 0,2.238669 0.736,3.25067 0.766668,1.012001 2.116003,1.012001 1.380001,0 2.116002,-1.012001 0.766668,-1.012001 0.766668,-3.25067 0,-2.269336 -0.766668,-3.25067 -0.736001,-1.012002 -2.116002,-1.012002 z"
           id="path18754" />
        <path
           d="m 117.29213,10.00649 h 5.39734 l -5.52,15.33335 h -6.22534 l -5.52001,-15.33335 h 5.48934 l 3.15867,11.684013 z"
           id="path18756" />
        <path
           d="m 129.69825,25.646507 q -2.33067,0 -3.80267,-1.257335 -1.47201,-1.257334 -1.47201,-4.140004 V 10.00649 h 5.21334 v 9.01601 q 0,1.472001 0.58267,2.054669 0.58267,0.582667 1.656,0.582667 1.104,0 1.87067,-0.797334 0.79733,-0.828001 0.79733,-2.637337 V 10.00649 h 5.21334 v 15.33335 h -4.66133 l -0.15334,-2.88267 q -0.736,1.625335 -2.05467,2.422669 -1.31867,0.766668 -3.18933,0.766668 z"
           id="path18758" />
        <path
           d="m 150.80125,9.6998228 q 2.42267,0 4.232,0.9506672 1.84,0.950668 2.85201,2.729337 1.04266,1.778668 1.04266,4.293338 0,2.514669 -1.04266,4.293338 -1.01201,1.778669 -2.85201,2.729336 -1.80933,0.950668 -4.232,0.950668 -2.392,0 -4.23201,-0.950668 -1.80933,-0.950667 -2.852,-2.729336 -1.012,-1.778669 -1.012,-4.293338 0,-2.51467 1.012,-4.293338 1.04267,-1.778669 2.852,-2.729337 1.84001,-0.9506672 4.23201,-0.9506672 z m 0,3.7106702 q -1.34934,0 -2.116,1.012002 -0.73601,0.981334 -0.73601,3.25067 0,2.238669 0.73601,3.25067 0.76666,1.012001 2.116,1.012001 1.38,0 2.116,-1.012001 0.76667,-1.012001 0.76667,-3.25067 0,-2.269336 -0.76667,-3.25067 -0.736,-1.012002 -2.116,-1.012002 z"
           id="path18760" />
        <path
           d="M 161.89062,25.33984 V 10.00649 h 4.6 l 0.21467,3.312003 q 0.552,-1.686668 1.68667,-2.637336 1.16533,-0.9813342 2.97467,-0.9813342 0.58267,0 0.98133,0.1226668 0.42934,0.092 0.67467,0.2146664 l -0.52133,4.293339 q -0.30667,-0.092 -0.79734,-0.184001 -0.46,-0.092 -1.13466,-0.092 -1.41067,0 -2.45334,0.889335 -1.012,0.889334 -1.012,2.668002 v 7.728009 z"
           id="path18762" />
        <path
           d="m 177.67438,8.2278211 q -1.59467,0 -2.33067,-0.5826673 -0.70533,-0.613334 -0.70533,-1.9013354 0,-1.3186681 0.70533,-1.9013354 0.736,-0.613334 2.33067,-0.613334 1.564,0 2.30001,0.613334 0.736,0.5826673 0.736,1.9013354 0,1.2880014 -0.736,1.9013354 -0.73601,0.5826673 -2.30001,0.5826673 z m 2.60667,1.7786689 v 15.33335 h -5.21334 V 10.00649 Z"
           id="path18764" />
        <path
           d="m 186.5682,20.065167 q 1.44134,0 2.23867,0.736001 0.828,0.736001 0.828,2.054669 0,1.288002 -0.828,2.024002 -0.79733,0.736001 -2.23867,0.736001 -1.44133,0 -2.26934,-0.736001 -0.79733,-0.736 -0.79733,-2.024002 0,-1.318668 0.79733,-2.054669 0.82801,-0.736001 2.26934,-0.736001 z"
           id="path18766" />
        <path
           d="m 200.1248,9.6998228 q 2.33067,0 3.864,0.6746672 1.564,0.674668 2.42267,1.748002 0.85867,1.073335 1.104,2.330669 l -4.81467,1.594669 q -0.184,-1.318668 -0.76667,-1.962669 -0.58266,-0.674668 -1.656,-0.674668 -1.472,0 -2.23867,1.042668 -0.736,1.042668 -0.736,3.281337 0,2.269336 0.79734,3.25067 0.828,0.950668 2.208,0.950668 2.17733,0 2.54534,-2.484003 l 4.692,1.502669 q -0.33733,1.993335 -2.23867,3.34267 -1.87067,1.349335 -4.968,1.349335 -3.77201,0 -6.04134,-2.085336 -2.23867,-2.116002 -2.23867,-5.888006 0,-2.51467 1.012,-4.293338 1.04267,-1.778669 2.852,-2.729337 1.80934,-0.9506672 4.20134,-0.9506672 z"
           style="font-size:30.6667px;fill:#ff5555"
           id="path18768" />
        <path
           d="m 217.52528,9.6998228 q 2.42267,0 4.232,0.9506672 1.84,0.950668 2.85201,2.729337 1.04266,1.778668 1.04266,4.293338 0,2.514669 -1.04266,4.293338 -1.01201,1.778669 -2.85201,2.729336 -1.80933,0.950668 -4.232,0.950668 -2.39201,0 -4.23201,-0.950668 -1.80933,-0.950667 -2.852,-2.729336 -1.012,-1.778669 -1.012,-4.293338 0,-2.51467 1.012,-4.293338 1.04267,-1.778669 2.852,-2.729337 1.84,-0.9506672 4.23201,-0.9506672 z m 0,3.7106702 q -1.34934,0 -2.116,1.012002 -0.73601,0.981334 -0.73601,3.25067 0,2.238669 0.73601,3.25067 0.76666,1.012001 2.116,1.012001 1.38,0 2.116,-1.012001 0.76667,-1.012001 0.76667,-3.25067 0,-2.269336 -0.76667,-3.25067 -0.736,-1.012002 -2.116,-1.012002 z"
           style="font-size:30.6667px;fill:#ff5555"
           id="path18770" />
        <path
           d="M 228.61465,25.33984 V 10.00649 h 4.66134 l 0.15333,2.97467 q 0.736,-1.625335 2.05467,-2.453336 1.34933,-0.8280012 3.09734,-0.8280012 1.68667,0 2.944,0.7666672 1.288,0.766668 1.90134,2.269336 0.70533,-1.502668 2.08533,-2.269336 1.41067,-0.7666672 3.06667,-0.7666672 2.26934,0 3.74134,1.3800012 1.50267,1.349335 1.50267,4.048005 V 25.33984 h -5.21334 v -9.01601 q 0,-1.472002 -0.58267,-2.054669 -0.58267,-0.582667 -1.50267,-0.582667 -1.16533,0 -1.932,0.889334 -0.76667,0.858668 -0.76667,2.576003 v 8.188009 h -5.21334 v -9.01601 q 0,-1.472002 -0.58266,-2.054669 -0.58267,-0.582667 -1.50267,-0.582667 -1.07334,0 -1.90134,0.828001 -0.79733,0.828001 -0.79733,2.729336 v 8.096009 z"
           style="font-size:30.6667px;fill:#ff5555"
           id="path18772" />
      </g>
    </g>
  </g>
  <defs
     id="defs11">
    <clipPath
       id="prefix__clip0">
      <path
         fill="#fff"
         d="M0 0h262v32.4H0z"
         id="path8" />
    </clipPath>
  </defs>
</svg>
